<svg width="11" height="11" viewBox="0 0 11 11" fill="none" xmlns="http://www.w3.org/2000/svg">
<path d="M5.50016 9.97933C3.02933 9.97933 1.021 7.971 1.021 5.50016C1.021 3.02933 3.02933 1.021 5.50016 1.021C7.971 1.021 9.97933 3.02933 9.97933 5.50016C9.97933 7.971 7.971 9.97933 5.50016 9.97933ZM5.50016 1.646C3.37516 1.646 1.646 3.37516 1.646 5.50016C1.646 7.62516 3.37516 9.35433 5.50016 9.35433C7.62516 9.35433 9.35433 7.62516 9.35433 5.50016C9.35433 3.37516 7.62516 1.646 5.50016 1.646Z" fill="#363636"/>
<path d="M7.04593 7.13773C6.99176 7.13773 6.9376 7.12523 6.8876 7.09189L5.59593 6.32106C5.2751 6.12939 5.0376 5.70856 5.0376 5.33773V3.62939C5.0376 3.45856 5.17926 3.31689 5.3501 3.31689C5.52093 3.31689 5.6626 3.45856 5.6626 3.62939V5.33773C5.6626 5.48773 5.7876 5.70856 5.91676 5.78356L7.20843 6.55439C7.35843 6.64189 7.40426 6.83356 7.31676 6.98356C7.25426 7.08356 7.1501 7.13773 7.04593 7.13773Z" fill="#363636"/>
</svg>
