<svg width="24" height="24" viewBox="0 0 24 24" fill="none" xmlns="http://www.w3.org/2000/svg">
<path d="M7.6492 17.5C7.35709 17.5 7.06499 17.3924 6.83438 17.1619C6.38854 16.7162 6.38854 15.9785 6.83438 15.5328L15.536 6.83426C15.9818 6.38858 16.7198 6.38858 17.1656 6.83426C17.6115 7.27995 17.6115 8.01764 17.1656 8.46332L8.46401 17.1619C8.24878 17.3924 7.9413 17.5 7.6492 17.5Z" fill="#757575"/>
<path d="M16.3508 17.5C16.0587 17.5 15.7666 17.3924 15.536 17.1619L6.83438 8.46332C6.38854 8.01764 6.38854 7.27995 6.83438 6.83426C7.28022 6.38858 8.01817 6.38858 8.46401 6.83426L17.1656 15.5328C17.6115 15.9785 17.6115 16.7162 17.1656 17.1619C16.935 17.3924 16.6429 17.5 16.3508 17.5Z" fill="#757575"/>
</svg>
