<svg width="24" height="25" viewBox="0 0 24 25" fill="none" xmlns="http://www.w3.org/2000/svg">
<path d="M2.75006 19.1498C2.34006 19.1498 2.00006 18.8098 2.00006 18.3998V12.6998C1.95006 9.9898 2.96006 7.4298 4.84006 5.5098C6.72006 3.5998 9.24006 2.5498 11.9501 2.5498C17.4901 2.5498 22.0001 7.0598 22.0001 12.5998V18.2998C22.0001 18.7098 21.6601 19.0498 21.2501 19.0498C20.8401 19.0498 20.5001 18.7098 20.5001 18.2998V12.5998C20.5001 7.8898 16.6701 4.0498 11.9501 4.0498C9.64006 4.0498 7.50006 4.93981 5.91006 6.5598C4.31006 8.18981 3.46006 10.3598 3.50006 12.6798V18.3898C3.50006 18.8098 3.17006 19.1498 2.75006 19.1498Z" fill="#757575"/>
<path d="M5.94 12.9502H5.81C3.71 12.9502 2 14.6602 2 16.7602V18.6402C2 20.7402 3.71 22.4502 5.81 22.4502H5.94C8.04 22.4502 9.75 20.7402 9.75 18.6402V16.7602C9.75 14.6602 8.04 12.9502 5.94 12.9502Z" fill="#757575"/>
<path d="M18.19 12.9502H18.06C15.96 12.9502 14.25 14.6602 14.25 16.7602V18.6402C14.25 20.7402 15.96 22.4502 18.06 22.4502H18.19C20.29 22.4502 22 20.7402 22 18.6402V16.7602C22 14.6602 20.29 12.9502 18.19 12.9502Z" fill="#757575"/>
</svg>
