<svg width="25" height="25" viewBox="0 0 25 25" fill="none" xmlns="http://www.w3.org/2000/svg">
<g clip-path="url(#clip0_2833_16688)">
<path d="M12.5 23.25C6.57 23.25 1.75 18.43 1.75 12.5C1.75 6.57 6.57 1.75 12.5 1.75C18.43 1.75 23.25 6.57 23.25 12.5C23.25 18.43 18.43 23.25 12.5 23.25ZM12.5 3.25C7.4 3.25 3.25 7.4 3.25 12.5C3.25 17.6 7.4 21.75 12.5 21.75C17.6 21.75 21.75 17.6 21.75 12.5C21.75 7.4 17.6 3.25 12.5 3.25Z" fill="#757575"/>
<path d="M12.5 14.25C12.09 14.25 11.75 13.91 11.75 13.5V8.5C11.75 8.09 12.09 7.75 12.5 7.75C12.91 7.75 13.25 8.09 13.25 8.5V13.5C13.25 13.91 12.91 14.25 12.5 14.25Z" fill="#757575"/>
<path d="M12.5 17.4999C12.37 17.4999 12.24 17.4699 12.12 17.4199C12 17.3699 11.89 17.2999 11.79 17.2099C11.7 17.1099 11.63 17.0099 11.58 16.8799C11.53 16.7599 11.5 16.6299 11.5 16.4999C11.5 16.3699 11.53 16.2399 11.58 16.1199C11.63 15.9999 11.7 15.8899 11.79 15.7899C11.89 15.6999 12 15.6299 12.12 15.5799C12.36 15.4799 12.64 15.4799 12.88 15.5799C13 15.6299 13.11 15.6999 13.21 15.7899C13.3 15.8899 13.37 15.9999 13.42 16.1199C13.47 16.2399 13.5 16.3699 13.5 16.4999C13.5 16.6299 13.47 16.7599 13.42 16.8799C13.37 17.0099 13.3 17.1099 13.21 17.2099C13.11 17.2999 13 17.3699 12.88 17.4199C12.76 17.4699 12.63 17.4999 12.5 17.4999Z" fill="#757575"/>
</g>
<defs>
<clipPath id="clip0_2833_16688">
<rect width="24" height="24" fill="white" transform="translate(0.5 0.5)"/>
</clipPath>
</defs>
</svg>
