<svg width="34" height="35" viewBox="0 0 34 35" fill="none" xmlns="http://www.w3.org/2000/svg">
<path d="M26.269 15.6825L23.5396 18.3129C23.1648 18.6735 22.9103 19.3948 22.988 19.911L23.4123 22.994C23.6881 24.9668 22.4648 25.8224 20.697 24.9032L17.6989 23.3334C17.1968 23.0717 16.3766 23.0859 15.8887 23.3758L13.2653 24.9102C11.1935 26.1194 9.95607 25.2072 10.5076 22.8738L11.2784 19.614C11.4198 19.02 11.1581 18.2068 10.7127 17.8038L8.23073 15.5623C6.45589 13.9571 6.95086 12.5005 9.34088 12.3166L12.3673 12.0904C12.933 12.0479 13.6189 11.6025 13.8805 11.1004L15.4503 8.08815C16.3766 6.32745 17.8686 6.33453 18.7666 8.10936L20.1667 10.8812C20.4071 11.3479 21.0152 11.8005 21.5314 11.8782L25.2791 12.4864C27.3014 12.8258 27.7469 14.2612 26.269 15.6825Z" fill="#FFAC00"/>
</svg>
