<svg width="25" height="25" viewBox="0 0 25 25" fill="none" xmlns="http://www.w3.org/2000/svg">
<path d="M8.5 22.8199C8.22 22.8199 7.92998 22.7499 7.66998 22.6099C7.09998 22.3099 6.75 21.7099 6.75 21.0699V19.65C3.73 19.34 1.75 17.1199 1.75 13.9399V7.93994C1.75 4.49994 4.06 2.18994 7.5 2.18994H17.5C20.94 2.18994 23.25 4.49994 23.25 7.93994V13.9399C23.25 17.3799 20.94 19.6899 17.5 19.6899H13.73L9.46997 22.53C9.17997 22.72 8.84 22.8199 8.5 22.8199ZM7.5 3.67993C4.92 3.67993 3.25 5.34993 3.25 7.92993V13.93C3.25 16.51 4.92 18.18 7.5 18.18C7.91 18.18 8.25 18.52 8.25 18.93V21.06C8.25 21.19 8.33 21.25 8.38 21.28C8.43001 21.31 8.53001 21.34 8.64001 21.27L13.09 18.31C13.21 18.23 13.36 18.18 13.51 18.18H17.51C20.09 18.18 21.76 16.51 21.76 13.93V7.92993C21.76 5.34993 20.09 3.67993 17.51 3.67993H7.5Z" fill="#757575"/>
<path d="M12.4998 12.6099C12.0898 12.6099 11.7498 12.2699 11.7498 11.8599V11.6499C11.7498 10.4899 12.5998 9.91989 12.9198 9.69989C13.2898 9.44989 13.4098 9.2799 13.4098 9.0199C13.4098 8.5199 12.9998 8.10986 12.4998 8.10986C11.9998 8.10986 11.5898 8.5199 11.5898 9.0199C11.5898 9.4299 11.2498 9.7699 10.8398 9.7699C10.4298 9.7699 10.0898 9.4299 10.0898 9.0199C10.0898 7.6899 11.1698 6.60986 12.4998 6.60986C13.8298 6.60986 14.9098 7.6899 14.9098 9.0199C14.9098 10.1599 14.0698 10.7299 13.7598 10.9399C13.3698 11.1999 13.2498 11.3699 13.2498 11.6499V11.8599C13.2498 12.2799 12.9098 12.6099 12.4998 12.6099Z" fill="#757575"/>
<path d="M12.5 15.1001C12.08 15.1001 11.75 14.7601 11.75 14.3501C11.75 13.9401 12.09 13.6001 12.5 13.6001C12.91 13.6001 13.25 13.9401 13.25 14.3501C13.25 14.7601 12.92 15.1001 12.5 15.1001Z" fill="#757575"/>
</svg>
