<svg width="24" height="25" viewBox="0 0 24 25" fill="none" xmlns="http://www.w3.org/2000/svg">
<path d="M15.9998 22.8199C15.6598 22.8199 15.3298 22.72 15.0398 22.53L10.7798 19.6899H8.88977C8.65977 19.6899 8.43974 19.58 8.29974 19.4C8.15974 19.21 8.10977 18.9699 8.16977 18.7499C8.22977 18.5099 8.25977 18.2699 8.25977 18.0099C8.25977 17.2099 7.95977 16.44 7.41977 15.84C6.80977 15.15 5.93977 14.7599 5.00977 14.7599C4.11977 14.7599 3.29975 15.1099 2.67975 15.7399C2.48975 15.9399 2.19976 16.0099 1.93976 15.9399C1.67976 15.8599 1.46976 15.6499 1.40976 15.3799C1.30976 14.9399 1.25977 14.4599 1.25977 13.9399V7.93994C1.25977 4.49994 3.56977 2.18994 7.00977 2.18994H17.0098C20.4498 2.18994 22.7598 4.49994 22.7598 7.93994V13.9399C22.7598 15.6099 22.2098 17.0499 21.1598 18.0999C20.2798 18.9799 19.1098 19.51 17.7598 19.65V21.0699C17.7598 21.7199 17.3997 22.3099 16.8297 22.6199C16.5597 22.7499 16.2798 22.8199 15.9998 22.8199ZM9.74976 18.1799H10.9998C11.1498 18.1799 11.2898 18.2199 11.4198 18.3099L15.8698 21.28C15.9798 21.35 16.0698 21.3199 16.1198 21.2899C16.1698 21.2599 16.2598 21.1999 16.2598 21.0599V18.9299C16.2598 18.5199 16.5998 18.1799 17.0098 18.1799C18.2798 18.1799 19.3498 17.78 20.0998 17.03C20.8598 16.27 21.2598 15.1999 21.2598 13.9299V7.92993C21.2598 5.34993 19.5898 3.67993 17.0098 3.67993H7.00977C4.42977 3.67993 2.75977 5.34993 2.75977 7.92993V13.8099C3.43977 13.4399 4.20977 13.2499 5.00977 13.2499C6.36977 13.2499 7.65976 13.83 8.53976 14.83C9.31976 15.7 9.75977 16.8199 9.75977 17.9999C9.74977 18.0599 9.74976 18.1199 9.74976 18.1799Z" fill="#757575"/>
<path d="M5 22.75C2.38 22.75 0.25 20.62 0.25 18C0.25 16.54 0.899999 15.19 2.03 14.29C2.87 13.62 3.93 13.25 5 13.25C7.62 13.25 9.75 15.38 9.75 18C9.75 19.36 9.16 20.66 8.13 21.56C7.26 22.33 6.15 22.75 5 22.75ZM5 14.75C4.26 14.75 3.56 15 2.97 15.47C2.2 16.08 1.75 17.01 1.75 18C1.75 19.79 3.21 21.25 5 21.25C5.78 21.25 6.53999 20.96 7.14999 20.44C7.84999 19.82 8.25 18.94 8.25 18C8.25 16.21 6.79 14.75 5 14.75Z" fill="#757575"/>
<path d="M3.99989 19.75C3.74989 19.75 3.49988 19.62 3.35988 19.39C3.14988 19.03 3.25989 18.57 3.61989 18.36L4.5099 17.83V16.75C4.5099 16.34 4.8499 16 5.2599 16C5.6699 16 6.0099 16.34 6.0099 16.75V18.25C6.0099 18.51 5.86989 18.76 5.64989 18.89L4.39989 19.64C4.25989 19.72 4.12989 19.75 3.99989 19.75Z" fill="#757575"/>
<path d="M15.5 11.75H8.5C8.09 11.75 7.75 11.41 7.75 11C7.75 10.59 8.09 10.25 8.5 10.25H15.5C15.91 10.25 16.25 10.59 16.25 11C16.25 11.41 15.91 11.75 15.5 11.75Z" fill="#757575"/>
</svg>
