<svg width="25" height="25" viewBox="0 0 25 25" fill="none" xmlns="http://www.w3.org/2000/svg">
<path d="M12.5 23.31C11.81 23.31 11.16 22.96 10.7 22.35L9.2 20.35C9.17 20.31 9.05 20.26 9 20.25H8.5C4.33 20.25 1.75 19.12 1.75 13.5V8.5C1.75 4.08 4.08 1.75 8.5 1.75H16.5C20.92 1.75 23.25 4.08 23.25 8.5V13.5C23.25 17.92 20.92 20.25 16.5 20.25H16C15.92 20.25 15.85 20.29 15.8 20.35L14.3 22.35C13.84 22.96 13.19 23.31 12.5 23.31ZM8.5 3.25C4.92 3.25 3.25 4.92 3.25 8.5V13.5C3.25 18.02 4.8 18.75 8.5 18.75H9C9.51 18.75 10.09 19.04 10.4 19.45L11.9 21.45C12.25 21.91 12.75 21.91 13.1 21.45L14.6 19.45C14.93 19.01 15.45 18.75 16 18.75H16.5C20.08 18.75 21.75 17.08 21.75 13.5V8.5C21.75 4.92 20.08 3.25 16.5 3.25H8.5Z" fill="#757575"/>
<path d="M12.5 12.5C11.94 12.5 11.5 12.05 11.5 11.5C11.5 10.95 11.95 10.5 12.5 10.5C13.05 10.5 13.5 10.95 13.5 11.5C13.5 12.05 13.06 12.5 12.5 12.5Z" fill="#757575"/>
<path d="M16.5 12.5C15.94 12.5 15.5 12.05 15.5 11.5C15.5 10.95 15.95 10.5 16.5 10.5C17.05 10.5 17.5 10.95 17.5 11.5C17.5 12.05 17.06 12.5 16.5 12.5Z" fill="#757575"/>
<path d="M8.5 12.5C7.94 12.5 7.5 12.05 7.5 11.5C7.5 10.95 7.95 10.5 8.5 10.5C9.05 10.5 9.5 10.95 9.5 11.5C9.5 12.05 9.06 12.5 8.5 12.5Z" fill="#757575"/>
</svg>
