<svg width="25" height="25" viewBox="0 0 25 25" fill="none" xmlns="http://www.w3.org/2000/svg">
<path d="M15.2 23.2502H9.80001C4.86001 23.2502 2.76001 21.1402 2.76001 16.2102V11.7202C2.76001 11.3102 3.10001 10.9702 3.51001 10.9702C3.92001 10.9702 4.26001 11.3102 4.26001 11.7202V16.2102C4.26001 20.3002 5.71001 21.7502 9.80001 21.7502H15.19C19.28 21.7502 20.73 20.3002 20.73 16.2102V11.7202C20.73 11.3102 21.07 10.9702 21.48 10.9702C21.89 10.9702 22.23 11.3102 22.23 11.7202V16.2102C22.24 21.1402 20.13 23.2502 15.2 23.2502Z" fill="#757575"/>
<path d="M12.5 13.25C11.4 13.25 10.4 12.82 9.69 12.03C8.98 11.24 8.65 10.21 8.76 9.11L9.43 2.43C9.47 2.05 9.79 1.75 10.18 1.75H14.85C15.24 1.75 15.56 2.04 15.6 2.43L16.27 9.11C16.38 10.21 16.05 11.24 15.34 12.03C14.6 12.82 13.6 13.25 12.5 13.25ZM10.85 3.25L10.25 9.26C10.18 9.93 10.38 10.56 10.8 11.02C11.65 11.96 13.35 11.96 14.2 11.02C14.62 10.55 14.82 9.92 14.75 9.26L14.15 3.25H10.85Z" fill="#757575"/>
<path d="M18.81 13.25C16.78 13.25 14.97 11.61 14.76 9.59L14.06 2.58C14.04 2.37 14.11 2.16 14.25 2C14.39 1.84 14.59 1.75 14.81 1.75H17.86C20.8 1.75 22.17 2.98 22.58 6L22.86 8.78C22.98 9.96 22.62 11.08 21.85 11.93C21.08 12.78 20 13.25 18.81 13.25ZM15.64 3.25L16.26 9.44C16.39 10.69 17.55 11.75 18.81 11.75C19.57 11.75 20.25 11.46 20.74 10.93C21.22 10.4 21.44 9.69 21.37 8.93L21.09 6.18C20.78 3.92 20.05 3.25 17.86 3.25H15.64Z" fill="#757575"/>
<path d="M6.14002 13.25C4.95002 13.25 3.87002 12.78 3.10002 11.93C2.33002 11.08 1.97002 9.96 2.09002 8.78L2.36002 6.03C2.78002 2.98 4.15002 1.75 7.09002 1.75H10.14C10.35 1.75 10.55 1.84 10.7 2C10.85 2.16 10.91 2.37 10.89 2.58L10.19 9.59C9.98002 11.61 8.17002 13.25 6.14002 13.25ZM7.09002 3.25C4.90002 3.25 4.17002 3.91 3.85002 6.2L3.58002 8.93C3.50002 9.69 3.73002 10.4 4.21002 10.93C4.69002 11.46 5.37002 11.75 6.14002 11.75C7.40002 11.75 8.57002 10.69 8.69002 9.44L9.31002 3.25H7.09002Z" fill="#757575"/>
<path d="M15 23.25H10C9.59 23.25 9.25 22.91 9.25 22.5V20C9.25 17.9 10.4 16.75 12.5 16.75C14.6 16.75 15.75 17.9 15.75 20V22.5C15.75 22.91 15.41 23.25 15 23.25ZM10.75 21.75H14.25V20C14.25 18.74 13.76 18.25 12.5 18.25C11.24 18.25 10.75 18.74 10.75 20V21.75Z" fill="#757575"/>
</svg>
