<svg width="25" height="25" viewBox="0 0 25 25" fill="none" xmlns="http://www.w3.org/2000/svg">
<path d="M17.5 21.75H7.5C3.85 21.75 1.75 19.65 1.75 16V9C1.75 5.35 3.85 3.25 7.5 3.25H17.5C21.15 3.25 23.25 5.35 23.25 9V16C23.25 19.65 21.15 21.75 17.5 21.75ZM7.5 4.75C4.64 4.75 3.25 6.14 3.25 9V16C3.25 18.86 4.64 20.25 7.5 20.25H17.5C20.36 20.25 21.75 18.86 21.75 16V9C21.75 6.14 20.36 4.75 17.5 4.75H7.5Z" fill="#757575"/>
<path d="M12.5 16.25C10.43 16.25 8.75 14.57 8.75 12.5C8.75 10.43 10.43 8.75 12.5 8.75C14.57 8.75 16.25 10.43 16.25 12.5C16.25 14.57 14.57 16.25 12.5 16.25ZM12.5 10.25C11.26 10.25 10.25 11.26 10.25 12.5C10.25 13.74 11.26 14.75 12.5 14.75C13.74 14.75 14.75 13.74 14.75 12.5C14.75 11.26 13.74 10.25 12.5 10.25Z" fill="#757575"/>
<path d="M5 11.25C4.59 11.25 4.25 10.91 4.25 10.5V9C4.25 7.21 5.71 5.75 7.5 5.75H9C9.41 5.75 9.75 6.09 9.75 6.5C9.75 6.91 9.41 7.25 9 7.25H7.5C6.54 7.25 5.75 8.04 5.75 9V10.5C5.75 10.91 5.41 11.25 5 11.25Z" fill="#757575"/>
<path d="M20 11.25C19.59 11.25 19.25 10.91 19.25 10.5V9C19.25 8.04 18.46 7.25 17.5 7.25H16C15.59 7.25 15.25 6.91 15.25 6.5C15.25 6.09 15.59 5.75 16 5.75H17.5C19.29 5.75 20.75 7.21 20.75 9V10.5C20.75 10.91 20.41 11.25 20 11.25Z" fill="#757575"/>
<path d="M9 19.25H7.5C5.71 19.25 4.25 17.79 4.25 16V14.5C4.25 14.09 4.59 13.75 5 13.75C5.41 13.75 5.75 14.09 5.75 14.5V16C5.75 16.96 6.54 17.75 7.5 17.75H9C9.41 17.75 9.75 18.09 9.75 18.5C9.75 18.91 9.41 19.25 9 19.25Z" fill="#757575"/>
<path d="M17.5 19.25H16C15.59 19.25 15.25 18.91 15.25 18.5C15.25 18.09 15.59 17.75 16 17.75H17.5C18.46 17.75 19.25 16.96 19.25 16V14.5C19.25 14.09 19.59 13.75 20 13.75C20.41 13.75 20.75 14.09 20.75 14.5V16C20.75 17.79 19.29 19.25 17.5 19.25Z" fill="#757575"/>
</svg>
