<svg width="24" height="25" viewBox="0 0 24 25" fill="none" xmlns="http://www.w3.org/2000/svg">
<path d="M15 23.25H9C3.57 23.25 1.25 20.93 1.25 15.5V9.5C1.25 4.07 3.57 1.75 9 1.75H15C20.43 1.75 22.75 4.07 22.75 9.5V15.5C22.75 20.93 20.43 23.25 15 23.25ZM9 3.25C4.39 3.25 2.75 4.89 2.75 9.5V15.5C2.75 20.11 4.39 21.75 9 21.75H15C19.61 21.75 21.25 20.11 21.25 15.5V9.5C21.25 4.89 19.61 3.25 15 3.25H9Z" fill="#757575"/>
<path d="M21.48 8.35986H2.52002C2.11002 8.35986 1.77002 8.01986 1.77002 7.60986C1.77002 7.19986 2.10002 6.85986 2.52002 6.85986H21.48C21.89 6.85986 22.23 7.19986 22.23 7.60986C22.23 8.01986 21.9 8.35986 21.48 8.35986Z" fill="#757575"/>
<path d="M8.52002 8.21986C8.11002 8.21986 7.77002 7.87986 7.77002 7.46986V2.60986C7.77002 2.19986 8.11002 1.85986 8.52002 1.85986C8.93002 1.85986 9.27002 2.19986 9.27002 2.60986V7.46986C9.27002 7.87986 8.93002 8.21986 8.52002 8.21986Z" fill="#757575"/>
<path d="M15.48 7.76986C15.07 7.76986 14.73 7.42986 14.73 7.01986V2.60986C14.73 2.19986 15.07 1.85986 15.48 1.85986C15.89 1.85986 16.23 2.19986 16.23 2.60986V7.01986C16.23 7.43986 15.9 7.76986 15.48 7.76986Z" fill="#757575"/>
<path d="M11.09 18.6198C10.73 18.6198 10.39 18.5298 10.08 18.3598C9.4 17.9598 9 17.1598 9 16.1498V13.7498C9 12.7398 9.4 11.9298 10.09 11.5298C10.78 11.1298 11.68 11.1898 12.55 11.6998L14.63 12.8998C15.5 13.3998 16.01 14.1498 16.01 14.9498C16.01 15.7498 15.5 16.4998 14.62 16.9998L12.54 18.1998C12.06 18.4798 11.56 18.6198 11.09 18.6198ZM11.1 12.7698C11 12.7698 10.91 12.7898 10.84 12.8298C10.63 12.9498 10.5 13.2898 10.5 13.7498V16.1498C10.5 16.5998 10.63 16.9398 10.84 17.0698C11.05 17.1898 11.41 17.1298 11.8 16.8998L13.88 15.6998C14.27 15.4698 14.51 15.1898 14.51 14.9498C14.51 14.7098 14.28 14.4298 13.88 14.1998L11.8 12.9998C11.54 12.8498 11.29 12.7698 11.1 12.7698Z" fill="#757575"/>
</svg>
